0
SECTION
2
HEADER
9
$INSUNITS
70
4
9
$ACADVER
1
AC1014
9
$HANDSEED
5
FFFF
0
ENDSEC
0
SECTION
2
TABLES
0
TABLE
2
VPORT
5
8
100
AcDbSymbolTable
0
ENDTAB
0
TABLE
2
LTYPE
5
5
100
AcDbSymbolTable
0
LTYPE
5
14
100
AcDbSymbolTableRecord
100
AcDbLinetypeTableRecord
2
BYBLOCK
70
0
0
LTYPE
5
15
100
AcDbSymbolTableRecord
100
AcDbLinetypeTableRecord
2
BYLAYER
70
0
0
LTYPE
5
16
100
AcDbSymbolTableRecord
100
AcDbLinetypeTableRecord
2
DASHED
70
0
3
Dashed __ __ __ __ __ __ __ __ __ __ __ __ __ _
72
65
73
2
40
0.75
49
0.5
74
0
49
-0.25
74
0
0
ENDTAB
0
TABLE
2
LAYER
5
2
100
AcDbSymbolTable
70
2
0
LAYER
5
50
100
AcDbSymbolTableRecord
100
AcDbLayerTableRecord
2
0
70
0
62
7
6
CONTINUOUS
0
ENDTAB
0
TABLE
2
STYLE
5
3
100
AcDbSymbolTable
70
1
0
STYLE
5
11
100
AcDbSymbolTableRecord
100
AcDbTextStyleTableRecord
2
STANDARD
70
0
0
ENDTAB
0
TABLE
2
VIEW
5
6
100
AcDbSymbolTable
70
0
0
ENDTAB
0
TABLE
2
UCS
5
7
100
AcDbSymbolTable
70
0
0
ENDTAB
0
TABLE
2
APPID
5
9
100
AcDbSymbolTable
70
2
0
APPID
5
12
100
AcDbSymbolTableRecord
100
AcDbRegAppTableRecord
2
ACAD
70
0
0
ENDTAB
0
TABLE
2
DIMSTYLE
5
A
100
AcDbSymbolTable
70
1
0
ENDTAB
0
TABLE
2
BLOCK_RECORD
5
1
100
AcDbSymbolTable
70
1
0
BLOCK_RECORD
5
1F
100
AcDbSymbolTableRecord
100
AcDbBlockTableRecord
2
*MODEL_SPACE
0
BLOCK_RECORD
5
1B
100
AcDbSymbolTableRecord
100
AcDbBlockTableRecord
2
*PAPER_SPACE
0
ENDTAB
0
ENDSEC
0
SECTION
2
BLOCKS
0
BLOCK
5
20
100
AcDbEntity
100
AcDbBlockBegin
2
*MODEL_SPACE
0
ENDBLK
5
21
100
AcDbEntity
100
AcDbBlockEnd
0
BLOCK
5
1C
100
AcDbEntity
100
AcDbBlockBegin
2
*PAPER_SPACE
0
ENDBLK
5
1D
100
AcDbEntity
100
AcDbBlockEnd
0
ENDSEC
0
SECTION
2
ENTITIES
0
LWPOLYLINE
5
100
100
AcDbEntity
8
0
100
AcDbPolyline
90
12
70
1
43
0.0
10
-288.18125000000003
20
100.63749999999999
42
0.99999999999999989
10
-288.18124999999998
20
104.43750000000001
10
-288.18125000000003
20
119.96250000000001
10
0.80000000000000759
20
119.96249999999998
10
0.79999999999998295
20
0.89999999999999947
10
-288.18125000000003
20
0.900000000000023
10
-288.18125000000003
20
8.9248196356575527
42
0.99999999999999989
10
-288.18125000000003
20
12.724819635657578
10
-288.18125003935074
20
14.124819635657584
42
0.41421356237308854
10
-285.98124960649324
20
16.324819202799965
10
-285.98123372599559
20
97.037499567182124
42
0.41421578661421049
10
-288.18125000000009
20
99.237499999979789
0
LWPOLYLINE
5
101
100
AcDbEntity
8
0
100
AcDbPolyline
90
8
70
1
43
0.0
10
-169.71250000000001
20
64.4375
42
0.41421356237307422
10
-169.21249999999998
20
64.9375
10
-169.21250000000001
20
77.9375
42
0.41421356237313145
10
-169.71250000000001
20
78.437500000000014
10
-182.71250000000003
20
78.4375
42
0.4142135623730222
10
-183.21250000000003
20
77.9375
10
-183.21250000000003
20
64.9375
42
0.41421356237312623
10
-182.71250000000003
20
64.4375
0
LWPOLYLINE
5
102
100
AcDbEntity
8
0
100
AcDbPolyline
90
8
70
1
43
0.0
10
-122.08750000000002
20
83.487500000000011
42
0.41421356237313667
10
-121.58750000000003
20
83.987499999999997
10
-121.58750000000001
20
96.987500000000011
42
0.41421356237309503
10
-122.08750000000002
20
97.487500000000011
10
-135.08750000000001
20
97.487500000000011
42
0.41421356237307422
10
-135.58750000000001
20
96.987500000000011
10
-135.58750000000001
20
83.987499999999997
42
0.41421356237307422
10
-135.08750000000001
20
83.487499999999983
0
LWPOLYLINE
5
103
100
AcDbEntity
8
0
100
AcDbPolyline
90
8
70
1
43
0.0
10
-145.90000000000001
20
4.3250000000000002
42
0.41421356237307422
10
-145.40000000000001
20
4.8249999999999993
10
-145.40000000000001
20
17.825000000000003
42
0.41421356237307549
10
-145.90000000000001
20
18.325000000000014
10
-158.90000000000001
20
18.324999999999999
42
0.41421356237310153
10
-159.40000000000001
20
17.825000000000006
10
-159.40000000000001
20
4.8250000000000002
42
0.41421356237309437
10
-158.90000000000001
20
4.3249999999999922
0
LWPOLYLINE
5
104
100
AcDbEntity
8
0
100
AcDbPolyline
90
8
70
1
43
0.0
10
-269.72500000000002
20
4.3250000000000002
42
0.41421356237304624
10
-269.22500000000002
20
4.8249999999999993
10
-269.22500000000002
20
17.825000000000003
42
0.41421356237312362
10
-269.72500000000002
20
18.325000000000014
10
-282.72500000000002
20
18.324999999999999
42
0.41421356237307422
10
-283.22500000000002
20
17.825000000000006
10
-283.22500000000002
20
4.8250000000000002
42
0.41421356237313273
10
-282.72500000000002
20
4.3249999999999922
0
LWPOLYLINE
5
105
100
AcDbEntity
8
0
100
AcDbPolyline
90
8
70
1
43
0.0
10
-98.275000000000006
20
4.3250000000000002
42
0.41421356237310542
10
-97.774999999999977
20
4.8249999999999993
10
-97.77500000000002
20
17.825000000000003
42
0.41421356237311452
10
-98.275000000000006
20
18.324999999999996
10
-111.27500000000001
20
18.324999999999999
42
0.41421356237310153
10
-111.77500000000002
20
17.825000000000006
10
-111.77500000000002
20
4.8250000000000002
42
0.41421356237309437
10
-111.27500000000001
20
4.3249999999999922
0
CIRCLE
5
106
100
AcDbEntity
8
0
100
AcDbCircle
10
-228.59999999999999
20
8.5249824934784346
30
0
40
1.9000000000000128
210
0
220
-0
230
1
0
LWPOLYLINE
5
107
100
AcDbEntity
8
0
100
AcDbPolyline
90
8
70
1
43
0.0
10
-231.625
20
26.337499999999999
42
0.41421356237304563
10
-231.125
20
26.837499999999999
10
-231.125
20
39.837499999999999
42
0.41421356237310025
10
-231.625
20
40.337500000000013
10
-244.62500000000003
20
40.337500000000006
42
0.41421356237313667
10
-245.12500000000003
20
39.837499999999999
10
-245.12500000000003
20
26.837499999999999
42
0.41421356237313145
10
-244.62500000000003
20
26.337499999999991
0
LWPOLYLINE
5
108
100
AcDbEntity
8
0
100
AcDbPolyline
90
8
70
1
43
0.0
10
-184.00000000000003
20
45.387500000000003
42
0.41421356237307422
10
-183.49999999999997
20
45.887500000000003
10
-183.5
20
58.88750000000001
42
0.41421356237313145
10
-184.00000000000003
20
59.387500000000017
10
-197.00000000000003
20
59.387500000000003
42
0.4142135623730222
10
-197.50000000000003
20
58.88750000000001
10
-197.5
20
45.887500000000003
42
0.41421356237310025
10
-197.00000000000003
20
45.387500000000031
0
LWPOLYLINE
5
109
100
AcDbEntity
8
0
100
AcDbPolyline
90
8
70
1
43
0.0
10
-164.95000000000002
20
45.387500000000003
42
0.41421356237307422
10
-164.44999999999996
20
45.887500000000003
10
-164.44999999999999
20
58.88750000000001
42
0.41421356237313145
10
-164.95000000000002
20
59.387500000000017
10
-177.94999999999999
20
59.387500000000003
42
0.41421356237307422
10
-178.44999999999999
20
58.88750000000001
10
-178.44999999999999
20
45.887500000000003
42
0.41421356237313145
10
-177.94999999999999
20
45.387499999999996
0
LWPOLYLINE
5
110
100
AcDbEntity
8
0
100
AcDbPolyline
90
8
70
1
43
0.0
10
-50.650000000000006
20
45.387500000000003
42
0.41421356237309503
10
-50.150000000000006
20
45.887500000000003
10
-50.150000000000006
20
58.88750000000001
42
0.41421356237310025
10
-50.650000000000013
20
59.387500000000003
10
-63.650000000000006
20
59.387500000000003
42
0.41421356237309503
10
-64.149999999999991
20
58.88750000000001
10
-64.150000000000006
20
45.887500000000003
42
0.41421356237311063
10
-63.650000000000006
20
45.387499999999996
0
LWPOLYLINE
5
111
100
AcDbEntity
8
0
100
AcDbPolyline
90
8
70
1
43
0.0
10
-212.57499999999999
20
4.3250000000000002
42
0.41421356237304624
10
-212.07499999999999
20
4.8249999999999993
10
-212.07499999999999
20
17.825000000000003
42
0.41421356237312362
10
-212.57499999999999
20
18.325000000000014
10
-225.57500000000002
20
18.324999999999999
42
0.41421356237307422
10
-226.07500000000002
20
17.825000000000006
10
-226.07500000000002
20
4.8250000000000002
42
0.41421356237313273
10
-225.57500000000002
20
4.3249999999999922
0
LWPOLYLINE
5
112
100
AcDbEntity
8
0
100
AcDbPolyline
90
8
70
1
43
0.0
10
-250.67500000000001
20
4.3250000000000002
42
0.41421356237304624
10
-250.17500000000001
20
4.8249999999999993
10
-250.17500000000001
20
17.825000000000003
42
0.41421356237312362
10
-250.67500000000001
20
18.325000000000014
10
-263.67500000000001
20
18.324999999999999
42
0.41421356237307422
10
-264.17500000000007
20
17.825000000000006
10
-264.17500000000007
20
4.8250000000000002
42
0.41421356237313273
10
-263.67500000000001
20
4.3249999999999922
0
LWPOLYLINE
5
113
100
AcDbEntity
8
0
100
AcDbPolyline
90
8
70
1
43
0.0
10
-145.90000000000001
20
45.387500000000003
42
0.41421356237310025
10
-145.40000000000003
20
45.887500000000003
10
-145.40000000000001
20
58.88750000000001
42
0.41421356237307422
10
-145.90000000000001
20
59.387500000000017
10
-158.90000000000001
20
59.387500000000003
42
0.41421356237308982
10
-159.40000000000001
20
58.88750000000001
10
-159.40000000000001
20
45.887500000000003
42
0.41421356237309503
10
-158.90000000000001
20
45.387499999999996
0
LWPOLYLINE
5
114
100
AcDbEntity
8
0
100
AcDbPolyline
90
8
70
1
43
0.0
10
-164.95000000000002
20
4.3250000000000002
42
0.41421356237307749
10
-164.44999999999996
20
4.8249999999999993
10
-164.44999999999999
20
17.825000000000003
42
0.41421356237313406
10
-164.95000000000002
20
18.325000000000014
10
-177.94999999999999
20
18.324999999999999
42
0.41421356237307422
10
-178.44999999999999
20
17.825000000000006
10
-178.44999999999999
20
4.8250000000000002
42
0.41421356237313273
10
-177.94999999999999
20
4.3249999999999922
0
LWPOLYLINE
5
115
100
AcDbEntity
8
0
100
AcDbPolyline
90
8
70
1
43
0.0
10
-226.86250000000001
20
64.4375
42
0.4142135623730222
10
-226.36250000000004
20
64.9375
10
-226.36250000000004
20
77.9375
42
0.41421356237310025
10
-226.86250000000001
20
78.437499999999972
10
-239.86250000000001
20
78.4375
42
0.41421356237307422
10
-240.36250000000001
20
77.9375
10
-240.36250000000001
20
64.9375
42
0.41421356237313667
10
-239.86250000000001
20
64.4375
0
LWPOLYLINE
5
116
100
AcDbEntity
8
0
100
AcDbPolyline
90
8
70
1
43
0.0
10
-241.15000000000003
20
45.387500000000003
42
0.4142135623730222
10
-240.65000000000003
20
45.887500000000003
10
-240.65000000000001
20
58.88750000000001
42
0.41421356237312101
10
-241.15000000000003
20
59.387500000000017
10
-254.15000000000003
20
59.387500000000003
42
0.41421356237307422
10
-254.65000000000003
20
58.88750000000001
10
-254.65000000000003
20
45.887500000000003
42
0.41421356237313145
10
-254.15000000000003
20
45.387499999999996
0
LWPOLYLINE
5
117
100
AcDbEntity
8
0
100
AcDbPolyline
90
32
70
1
43
0.0
10
-257.81875000000008
20
64.4375
42
0.4142135623730846
10
-257.31875000000014
20
64.9375
10
-257.31875000000008
20
68.437500000000014
10
-255.62075000000007
20
68.437500000000014
10
-255.62075000000007
20
63.785674398316246
42
0.41421356237313145
10
-255.12075000000007
20
63.28567439831626
10
-249.12075000000004
20
63.28567439831626
42
0.41421356237307944
10
-248.62075000000007
20
63.785674398316246
10
-248.62075000000007
20
76.475747101538374
42
0.41421356237312101
10
-249.12075000000004
20
76.975747101538389
10
-255.12075000000007
20
76.975747101538389
42
0.41421356237313145
10
-255.62075000000007
20
76.475747101538374
10
-255.62075000000007
20
74.537500000000009
10
-257.31875000000008
20
74.537500000000009
10
-257.31875000000008
20
77.9375
42
0.41421356237312101
10
-257.81875000000002
20
78.437499999999972
10
-270.81875000000002
20
78.437500000000014
42
0.41421356237312101
10
-271.31875000000002
20
77.9375
10
-271.31875000000002
20
74.537500000000009
10
-273.01675
20
74.537500000000009
10
-273.01675
20
76.475747101538374
42
0.41421356237313145
10
-273.51675000000006
20
76.975747101538389
10
-279.51675000000006
20
76.975747101538389
42
0.41421356237313145
10
-280.01675
20
76.475747101538374
10
-280.01675
20
63.785674398316246
42
0.41421356237312101
10
-279.51675000000006
20
63.285674398316274
10
-273.51675000000006
20
63.28567439831626
42
0.41421356237307944
10
-273.01675
20
63.785674398316246
10
-273.01675
20
68.437500000000014
10
-271.31875000000002
20
68.437500000000014
10
-271.31875000000002
20
64.9375
42
0.41421356237312101
10
-270.81875000000002
20
64.437499999999986
0
LWPOLYLINE
5
118
100
AcDbEntity
8
0
100
AcDbPolyline
90
8
70
1
43
0.0
10
-55.412500000000009
20
64.4375
42
0.41421356237309503
10
-54.912500000000009
20
64.9375
10
-54.912500000000009
20
77.9375
42
0.41421356237310025
10
-55.412500000000016
20
78.4375
10
-68.412499999999994
20
78.4375
42
0.41421356237309503
10
-68.912499999999994
20
77.9375
10
-68.912499999999994
20
64.9375
42
0.41421356237310025
10
-68.412499999999994
20
64.4375
0
LWPOLYLINE
5
119
100
AcDbEntity
8
0
100
AcDbPolyline
90
8
70
1
43
0.0
10
-112.56250000000001
20
64.4375
42
0.41421356237310542
10
-112.0625
20
64.9375
10
-112.0625
20
77.9375
42
0.41421356237309503
10
-112.56250000000001
20
78.437500000000014
10
-125.5625
20
78.4375
42
0.41421356237310025
10
-126.0625
20
77.9375
10
-126.06250000000001
20
64.9375
42
0.41421356237307944
10
-125.5625
20
64.4375
0
LWPOLYLINE
5
120
100
AcDbEntity
8
0
100
AcDbPolyline
90
8
70
1
43
0.0
10
-31.600000000000001
20
45.387500000000003
42
0.41421356237309503
10
-31.100000000000001
20
45.887500000000003
10
-31.100000000000001
20
58.88750000000001
42
0.41421356237309503
10
-31.600000000000001
20
59.387500000000003
10
-44.600000000000001
20
59.387500000000003
42
0.41421356237309503
10
-45.099999999999994
20
58.88750000000001
10
-45.100000000000009
20
45.887500000000003
42
0.41421356237310025
10
-44.600000000000009
20
45.387499999999996
0
LWPOLYLINE
5
121
100
AcDbEntity
8
0
100
AcDbPolyline
90
8
70
1
43
0.0
10
-193.52500000000003
20
26.337499999999999
42
0.41421356237307683
10
-193.02499999999998
20
26.837499999999999
10
-193.02500000000003
20
39.837499999999999
42
0.41421356237311063
10
-193.52500000000003
20
40.337500000000013
10
-206.52500000000003
20
40.337500000000006
42
0.41421356237312623
10
-207.02500000000003
20
39.837499999999999
10
-207.02500000000001
20
26.837499999999999
42
0.41421356237309764
10
-206.52500000000003
20
26.337500000000027
0
LWPOLYLINE
5
122
100
AcDbEntity
8
0
100
AcDbPolyline
90
8
70
1
43
0.0
10
-53.031250000000007
20
102.53749999999999
42
0.41421356237309503
10
-52.53125
20
103.03750000000001
10
-52.531250000000007
20
116.03749999999999
42
0.41421356237310542
10
-53.031250000000014
20
116.53749999999999
10
-66.03125
20
116.53750000000001
42
0.41421356237307944
10
-66.531250000000014
20
116.03749999999999
10
-66.53125
20
103.03750000000001
42
0.41421356237310542
10
-66.03125
20
102.53749999999999
0
CIRCLE
5
123
100
AcDbEntity
8
0
100
AcDbCircle
10
-238.07500000000005
20
113.0697170707697
30
0
40
1.9000000000000128
210
0
220
-0
230
1
0
LWPOLYLINE
5
124
100
AcDbEntity
8
0
100
AcDbPolyline
90
8
70
1
43
0.0
10
-22.074999999999999
20
26.337499999999999
42
0.41421356237309503
10
-21.575000000000003
20
26.837499999999999
10
-21.575000000000003
20
39.837499999999999
42
0.41421356237311063
10
-22.074999999999996
20
40.337499999999991
10
-35.075000000000003
20
40.337500000000006
42
0.41421356237310542
10
-35.57500000000001
20
39.837499999999999
10
-35.575000000000003
20
26.837499999999999
42
0.41421356237310025
10
-35.075000000000003
20
26.337499999999995
0
LWPOLYLINE
5
125
100
AcDbEntity
8
0
100
AcDbPolyline
90
8
70
1
43
0.0
10
-179.23750000000001
20
83.487500000000011
42
0.4142135623730846
10
-178.73750000000001
20
83.987499999999997
10
-178.73750000000001
20
96.987500000000011
42
0.41421356237313667
10
-179.23750000000001
20
97.487500000000011
10
-192.23750000000001
20
97.487500000000011
42
0.41421356237310542
10
-192.73750000000004
20
96.987500000000011
10
-192.73750000000004
20
83.987499999999997
42
0.41421356237310542
10
-192.23750000000001
20
83.487499999999983
0
LWPOLYLINE
5
126
100
AcDbEntity
8
0
100
AcDbPolyline
90
32
70
1
43
0.0
10
-123.96875000000001
20
116.03749999999999
10
-123.96875000000001
20
110.84212382930737
10
-84.270750000000035
20
110.84212382930738
10
-84.270750000000035
20
114.57574710153837
42
-0.4142135623730534
10
-83.770750000000035
20
115.07574710153838
10
-77.770750000000021
20
115.07574710153835
42
-0.41421356237307944
10
-77.270750000000007
20
114.57574710153837
10
-77.270750000000021
20
101.88567439831624
42
-0.41421356237309503
10
-77.770750000000021
20
101.38567439831625
10
-83.770750000000035
20
101.38567439831625
42
-0.41421356237309503
10
-84.270750000000021
20
101.88567439831624
10
-84.270750000000021
20
106.53750000000001
10
-123.96875000000001
20
106.53750000000001
10
-123.96875000000001
20
103.03749999999999
42
-0.41421356237312623
10
-124.46875000000003
20
102.53749999999999
10
-137.46875
20
102.53749999999998
42
-0.4142135623730534
10
-137.96875000000003
20
103.03749999999999
10
-137.96875000000003
20
106.53750000000001
10
-177.66675000000123
20
106.53750000000001
10
-177.66674999999998
20
101.88567439831624
42
-0.41421356237307422
10
-178.16674999999998
20
101.38567439831625
10
-184.16674999999998
20
101.3856743983162
42
-0.41421356237309503
10
-184.66675000000004
20
101.88567439831624
10
-184.66675000000004
20
114.57574710153837
42
-0.4142135623730846
10
-184.16674999999998
20
115.07574710153838
10
-178.16674999999998
20
115.07574710153834
42
-0.41421356237309503
10
-177.66674999999998
20
114.57574710153837
10
-177.66674999999998
20
110.84212382930738
10
-137.96875
20
110.84212382930737
10
-137.96875000000003
20
116.03749999999999
42
-0.4142135623730534
10
-137.46875
20
116.53750000000001
10
-124.46875000000003
20
116.53750000000001
42
-0.41421356237307422
0
LWPOLYLINE
5
127
100
AcDbEntity
8
0
100
AcDbPolyline
90
8
70
1
43
0.0
10
-243.53125000000003
20
102.53749999999999
42
0.41421356237313667
10
-243.03125
20
103.03750000000001
10
-243.03125
20
116.03749999999999
42
0.41421356237309503
10
-243.53125000000003
20
116.53750000000001
10
-256.53125
20
116.53750000000001
42
0.4142135623730846
10
-257.03125000000006
20
116.03749999999999
10
-257.03125
20
103.03750000000001
42
0.41421356237309503
10
-256.53125
20
102.53750000000004
0
LWPOLYLINE
5
128
100
AcDbEntity
8
0
100
AcDbPolyline
90
32
70
1
43
0.0
10
-268.25425000000001
20
93.587500000000006
10
-266.55624999999998
20
93.587500000000006
10
-266.55624999999998
20
96.987500000000011
42
-0.41421356237313667
10
-266.05624999999998
20
97.487500000000011
10
-253.05624999999998
20
97.487499999999983
42
-0.41421356237309503
10
-252.55625000000003
20
96.987500000000011
10
-252.55624999999998
20
93.587500000000006
10
-250.85825
20
93.587500000000006
10
-250.85825
20
95.525747101538371
42
-0.41421356237313667
10
-250.35825
20
96.025747101538386
10
-244.35825
20
96.0257471015384
42
-0.41421356237310542
10
-243.85825
20
95.525747101538371
10
-243.85825000000006
20
82.835674398316257
42
-0.41421356237307422
10
-244.35825
20
82.335674398316257
10
-250.35825
20
82.335674398316243
42
-0.41421356237313667
10
-250.85825
20
82.835674398316257
10
-250.85825
20
87.487500000000011
10
-252.55624999999998
20
87.487500000000011
10
-252.55625000000003
20
83.987499999999997
42
-0.41421356237307422
10
-253.05624999999998
20
83.487500000000011
10
-266.05624999999998
20
83.487499999999983
42
-0.41421356237313667
10
-266.55624999999998
20
83.987499999999997
10
-266.55624999999998
20
87.487500000000011
10
-268.25425000000001
20
87.487500000000011
10
-268.25425000000001
20
82.835674398316257
42
-0.41421356237307422
10
-268.75425000000001
20
82.335674398316257
10
-274.75425000000001
20
82.335674398316286
42
-0.41421356237309503
10
-275.25424999999996
20
82.835674398316257
10
-275.25424999999996
20
95.525747101538371
42
-0.41421356237310542
10
-274.75425000000001
20
96.025747101538386
10
-268.75425000000001
20
96.0257471015384
42
-0.41421356237310542
10
-268.25425000000001
20
95.525747101538371
0
LWPOLYLINE
5
129
100
AcDbEntity
8
0
100
AcDbPolyline
90
8
70
1
43
0.0
10
-219.71875
20
102.53749999999999
42
0.41421356237313667
10
-219.21875
20
103.03750000000001
10
-219.21875
20
116.03749999999999
42
0.41421356237309503
10
-219.71875
20
116.53750000000001
10
-232.71875
20
116.53750000000001
42
0.4142135623730846
10
-233.21875000000003
20
116.03749999999999
10
-233.21875000000003
20
103.03750000000001
42
0.41421356237310542
10
-232.71875
20
102.53749999999999
0
LWPOLYLINE
5
130
100
AcDbEntity
8
0
100
AcDbPolyline
90
8
70
1
43
0.0
10
-188.76249999999999
20
64.4375
42
0.4142135623730222
10
-188.26250000000002
20
64.9375
10
-188.26249999999999
20
77.9375
42
0.41421356237312101
10
-188.76249999999999
20
78.437500000000014
10
-201.76249999999999
20
78.4375
42
0.41421356237307422
10
-202.26249999999999
20
77.9375
10
-202.26249999999999
20
64.9375
42
0.41421356237313667
10
-201.76249999999999
20
64.4375
0
LWPOLYLINE
5
131
100
AcDbEntity
8
0
100
AcDbPolyline
90
8
70
1
43
0.0
10
-222.10000000000002
20
45.387500000000003
42
0.4142135623730222
10
-221.60000000000002
20
45.887500000000003
10
-221.59999999999999
20
58.88750000000001
42
0.41421356237312101
10
-222.10000000000002
20
59.387500000000017
10
-235.10000000000002
20
59.387500000000003
42
0.41421356237307422
10
-235.60000000000002
20
58.88750000000001
10
-235.60000000000002
20
45.887500000000003
42
0.41421356237313145
10
-235.10000000000002
20
45.387499999999996
0
LWPOLYLINE
5
132
100
AcDbEntity
8
0
100
AcDbPolyline
90
8
70
1
43
0.0
10
-141.13749999999999
20
83.487500000000011
42
0.41421356237313667
10
-140.63750000000002
20
83.987499999999997
10
-140.63749999999999
20
96.987500000000011
42
0.41421356237309503
10
-141.13749999999999
20
97.487500000000011
10
-154.13749999999999
20
97.487500000000011
42
0.41421356237309503
10
-154.63750000000002
20
96.987500000000011
10
-154.63749999999999
20
83.987499999999997
42
0.41421356237313667
10
-154.13749999999999
20
83.487500000000011
0
LWPOLYLINE
5
133
100
AcDbEntity
8
0
100
AcDbPolyline
90
8
70
1
43
0.0
10
-103.03750000000001
20
83.487500000000011
42
0.41421356237313667
10
-102.53750000000002
20
83.987499999999997
10
-102.53749999999999
20
96.987500000000011
42
0.41421356237309503
10
-103.03750000000001
20
97.487500000000011
10
-116.03749999999999
20
97.487500000000011
42
0.41421356237307422
10
-116.53750000000001
20
96.987500000000011
10
-116.53750000000001
20
83.987499999999997
42
0.41421356237307422
10
-116.03749999999999
20
83.487499999999983
0
CIRCLE
5
134
100
AcDbEntity
8
0
100
AcDbCircle
10
-23.669908659751513
20
112.92156364541972
30
0
40
1.8999999999999995
210
0
220
-0
230
1
0
LWPOLYLINE
5
135
100
AcDbEntity
8
0
100
AcDbPolyline
90
8
70
1
43
0.0
10
-131.61250000000001
20
64.4375
42
0.41421356237310542
10
-131.11250000000001
20
64.9375
10
-131.11250000000001
20
77.9375
42
0.41421356237309503
10
-131.61250000000001
20
78.437500000000014
10
-144.61250000000001
20
78.4375
42
0.41421356237310025
10
-145.11250000000001
20
77.9375
10
-145.11250000000001
20
64.9375
42
0.41421356237307944
10
-144.61250000000001
20
64.4375
0
LWPOLYLINE
5
136
100
AcDbEntity
8
0
100
AcDbPolyline
90
32
70
1
43
0.0
10
-260.19999999999999
20
26.337499999999999
42
0.41421356237307944
10
-259.69999999999999
20
26.837499999999991
10
-259.70000000000005
20
30.337500000000006
10
-258.00200000000007
20
30.337500000000006
10
-258.00200000000007
20
25.685674398316245
42
0.41421356237313145
10
-257.50200000000001
20
25.185674398316237
10
-251.50200000000001
20
25.185674398316252
42
0.41421356237307944
10
-251.00200000000004
20
25.685674398316245
10
-251.00200000000004
20
38.375747101538373
42
0.41421356237311846
10
-251.50200000000001
20
38.87574710153838
10
-257.50200000000001
20
38.87574710153838
42
0.41421356237313145
10
-258.00200000000007
20
38.375747101538373
10
-258.00200000000007
20
36.4375
10
-259.70000000000005
20
36.4375
10
-259.70000000000005
20
39.837499999999999
42
0.41421356237312362
10
-260.20000000000005
20
40.337500000000006
10
-273.19999999999999
20
40.337500000000006
42
0.41421356237312362
10
-273.69999999999999
20
39.837499999999999
10
-273.69999999999999
20
36.4375
10
-275.39800000000002
20
36.4375
10
-275.39800000000002
20
38.375747101538373
42
0.41421356237313145
10
-275.89800000000002
20
38.87574710153838
10
-281.89800000000002
20
38.87574710153838
42
0.41421356237313145
10
-282.39800000000002
20
38.375747101538373
10
-282.39799999999997
20
25.685674398316245
42
0.41421356237311846
10
-281.89800000000002
20
25.185674398316252
10
-275.89800000000002
20
25.185674398316252
42
0.41421356237307944
10
-275.39800000000002
20
25.685674398316245
10
-275.39800000000002
20
30.337500000000006
10
-273.69999999999999
20
30.337500000000006
10
-273.69999999999999
20
26.837499999999991
42
0.41421356237310025
10
-273.19999999999999
20
26.337499999999999
0
LWPOLYLINE
5
137
100
AcDbEntity
8
0
100
AcDbPolyline
90
8
70
1
43
0.0
10
-5.40625
20
102.53749999999999
42
0.41421356237309437
10
-4.9062499999999947
20
103.03750000000001
10
-4.90625
20
116.03749999999999
42
0.41421356237306578
10
-5.4062499999999858
20
116.53750000000001
10
-18.40625
20
116.53750000000001
42
0.41421356237307549
10
-18.90625
20
116.03749999999999
10
-18.90625
20
103.03750000000001
42
0.41421356237310936
10
-18.406249999999993
20
102.53749999999999
0
LWPOLYLINE
5
138
100
AcDbEntity
8
0
100
AcDbPolyline
90
8
70
1
43
0.0
10
-3.0249999999999999
20
26.337499999999999
42
0.4142135623730957
10
-2.5250000000000004
20
26.837499999999999
10
-2.5249999999999999
20
39.837499999999999
42
0.41421356237307094
10
-3.0249999999999844
20
40.337500000000006
10
-16.024999999999999
20
40.337500000000006
42
0.41421356237310025
10
-16.524999999999999
20
39.837499999999999
10
-16.524999999999999
20
26.837499999999999
42
0.41421356237310153
10
-16.024999999999991
20
26.337499999999999
0
LWPOLYLINE
5
139
100
AcDbEntity
8
0
100
AcDbPolyline
90
8
70
1
43
0.0
10
-155.42500000000001
20
26.337499999999999
42
0.41421356237310025
10
-154.92500000000004
20
26.837499999999999
10
-154.92500000000001
20
39.837499999999999
42
0.41421356237306123
10
-155.42500000000001
20
40.337500000000013
10
-168.42500000000001
20
40.337500000000006
42
0.41421356237312623
10
-168.92500000000001
20
39.837499999999999
10
-168.92500000000001
20
26.837499999999999
42
0.41421356237310025
10
-168.42500000000001
20
26.337499999999991
0
LWPOLYLINE
5
140
100
AcDbEntity
8
0
100
AcDbPolyline
90
8
70
1
43
0.0
10
-207.8125
20
64.4375
42
0.4142135623730222
10
-207.31250000000003
20
64.9375
10
-207.31250000000003
20
77.9375
42
0.41421356237310025
10
-207.8125
20
78.437499999999972
10
-220.8125
20
78.4375
42
0.41421356237307422
10
-221.3125
20
77.9375
10
-221.3125
20
64.9375
42
0.41421356237313667
10
-220.8125
20
64.4375
0
LWPOLYLINE
5
141
100
AcDbEntity
8
0
100
AcDbPolyline
90
8
70
1
43
0.0
10
-64.9375
20
83.487500000000011
42
0.41421356237311063
10
-64.437500000000028
20
83.987499999999997
10
-64.4375
20
96.987500000000011
42
0.41421356237310542
10
-64.9375
20
97.487500000000011
10
-77.9375
20
97.487500000000011
42
0.41421356237309503
10
-78.4375
20
96.987500000000011
10
-78.4375
20
83.987499999999997
42
0.41421356237309503
10
-77.9375
20
83.487499999999983
0
CIRCLE
5
142
100
AcDbEntity
8
0
100
AcDbCircle
10
-117.61875000000002
20
112.95011869119919
30
0
40
1.899999999999995
210
0
220
-0
230
1
0
LWPOLYLINE
5
143
100
AcDbEntity
8
0
100
AcDbPolyline
90
8
70
1
43
0.0
10
-79.224999999999994
20
26.337499999999999
42
0.41421356237309764
10
-78.725000000000009
20
26.837499999999999
10
-78.724999999999994
20
39.837499999999999
42
0.41421356237311585
10
-79.224999999999994
20
40.337499999999991
10
-92.224999999999994
20
40.337500000000006
42
0.41421356237310802
10
-92.725000000000009
20
39.837499999999999
10
-92.724999999999994
20
26.837499999999999
42
0.41421356237311324
10
-92.224999999999994
20
26.337500000000009
0
LWPOLYLINE
5
144
100
AcDbEntity
8
0
100
AcDbPolyline
90
8
70
1
43
0.0
10
-136.375
20
26.337499999999999
42
0.41421356237310025
10
-135.87500000000003
20
26.837499999999999
10
-135.875
20
39.837499999999999
42
0.41421356237306123
10
-136.375
20
40.337500000000013
10
-149.375
20
40.337500000000006
42
0.41421356237310802
10
-149.875
20
39.837499999999999
10
-149.875
20
26.837499999999999
42
0.41421356237309243
10
-149.375
20
26.337499999999991
0
LWPOLYLINE
5
145
100
AcDbEntity
8
0
100
AcDbPolyline
90
8
70
1
43
0.0
10
-264.96249999999998
20
45.387500000000003
42
0.41421356237307422
10
-264.46249999999998
20
45.887500000000003
10
-264.46249999999998
20
58.88750000000001
42
0.41421356237313145
10
-264.96249999999998
20
59.387500000000017
10
-277.96249999999998
20
59.387500000000003
42
0.4142135623730222
10
-278.46250000000003
20
58.88750000000001
10
-278.46249999999998
20
45.887500000000003
42
0.41421356237310025
10
-277.96249999999998
20
45.387500000000031
0
LWPOLYLINE
5
146
100
AcDbEntity
8
0
100
AcDbPolyline
90
8
70
1
43
0.0
10
-60.174999999999997
20
26.337499999999999
42
0.41421356237309764
10
-59.675000000000011
20
26.837499999999999
10
-59.675000000000004
20
39.837499999999999
42
0.41421356237311585
10
-60.174999999999997
20
40.337499999999991
10
-73.174999999999997
20
40.337500000000006
42
0.41421356237310542
10
-73.674999999999997
20
39.837499999999999
10
-73.674999999999997
20
26.837499999999999
42
0.41421356237310025
10
-73.174999999999983
20
26.337499999999999
0
LWPOLYLINE
5
147
100
AcDbEntity
8
0
100
AcDbPolyline
90
8
70
1
43
0.0
10
-93.512500000000003
20
64.4375
42
0.41421356237310542
10
-93.012499999999989
20
64.9375
10
-93.012500000000017
20
77.9375
42
0.41421356237311585
10
-93.512500000000003
20
78.437499999999986
10
-106.51250000000002
20
78.4375
42
0.41421356237308982
10
-107.01250000000002
20
77.9375
10
-107.01250000000002
20
64.9375
42
0.41421356237310025
10
-106.51250000000002
20
64.4375
0
LWPOLYLINE
5
148
100
AcDbEntity
8
0
100
AcDbPolyline
90
8
70
1
43
0.0
10
-88.75
20
45.387500000000003
42
0.41421356237308982
10
-88.25
20
45.887500000000003
10
-88.250000000000014
20
58.88750000000001
42
0.41421356237311585
10
-88.75
20
59.387499999999996
10
-101.75
20
59.387500000000003
42
0.41421356237308982
10
-102.25000000000001
20
58.88750000000001
10
-102.25000000000001
20
45.887500000000003
42
0.41421356237309503
10
-101.75
20
45.387499999999996
0
LWPOLYLINE
5
149
100
AcDbEntity
8
0
100
AcDbPolyline
90
8
70
1
43
0.0
10
-7.7875000000000005
20
45.387500000000003
42
0.41421356237309503
10
-7.2875000000000023
20
45.887500000000003
10
-7.2874999999999996
20
58.88750000000001
42
0.41421356237308593
10
-7.7874999999999872
20
59.387500000000003
10
-20.787500000000001
20
59.387500000000003
42
0.41421356237309503
10
-21.287500000000001
20
58.88750000000001
10
-21.287500000000001
20
45.887500000000003
42
0.41421356237310025
10
-20.787499999999994
20
45.387500000000003
0
LWPOLYLINE
5
150
100
AcDbEntity
8
0
100
AcDbPolyline
90
8
70
1
43
0.0
10
-10.168749999999999
20
64.4375
42
0.41421356237309764
10
-9.6687499999999975
20
64.9375
10
-9.6687499999999993
20
77.9375
42
0.41421356237309764
10
-10.168750000000006
20
78.4375
10
-23.168749999999999
20
78.4375
42
0.41421356237309503
10
-23.668750000000003
20
77.9375
10
-23.668749999999999
20
64.9375
42
0.41421356237310025
10
-23.168749999999996
20
64.4375
0
LWPOLYLINE
5
151
100
AcDbEntity
8
0
100
AcDbPolyline
90
8
70
1
43
0.0
10
-217.33750000000001
20
83.487500000000011
42
0.41421356237307422
10
-216.83750000000003
20
83.987499999999997
10
-216.83750000000003
20
96.987500000000011
42
0.41421356237309503
10
-217.33750000000001
20
97.487499999999983
10
-230.33750000000001
20
97.487500000000011
42
0.41421356237313667
10
-230.83750000000003
20
96.987500000000011
10
-230.83750000000003
20
83.987499999999997
42
0.41421356237313667
10
-230.33750000000001
20
83.487499999999983
0
LWPOLYLINE
5
152
100
AcDbEntity
8
0
100
AcDbPolyline
90
8
70
1
43
0.0
10
-74.462500000000006
20
64.4375
42
0.41421356237310542
10
-73.962500000000006
20
64.9375
10
-73.962500000000006
20
77.9375
42
0.41421356237309503
10
-74.462500000000006
20
78.4375
10
-87.46250000000002
20
78.4375
42
0.41421356237310025
10
-87.962500000000006
20
77.9375
10
-87.962500000000006
20
64.9375
42
0.41421356237309503
10
-87.46250000000002
20
64.437500000000014
0
LWPOLYLINE
5
153
100
AcDbEntity
8
0
100
AcDbPolyline
90
8
70
1
43
0.0
10
-117.32500000000002
20
26.337499999999999
42
0.41421356237310542
10
-116.82500000000002
20
26.837499999999999
10
-116.82500000000002
20
39.837499999999999
42
0.41421356237309243
10
-117.32500000000002
20
40.337500000000013
10
-130.32499999999999
20
40.337500000000006
42
0.41421356237310802
10
-130.82499999999999
20
39.837499999999999
10
-130.82499999999999
20
26.837499999999999
42
0.41421356237309243
10
-130.32499999999999
20
26.337499999999991
0
LWPOLYLINE
5
154
100
AcDbEntity
8
0
100
AcDbPolyline
90
8
70
1
43
0.0
10
-160.1875
20
83.487500000000011
42
0.41421356237313667
10
-159.68750000000003
20
83.987499999999997
10
-159.6875
20
96.987500000000011
42
0.41421356237309503
10
-160.1875
20
97.487500000000011
10
-173.1875
20
97.487500000000011
42
0.41421356237310542
10
-173.68750000000003
20
96.987500000000011
10
-173.68750000000003
20
83.987499999999997
42
0.41421356237310542
10
-173.1875
20
83.487499999999983
0
LWPOLYLINE
5
155
100
AcDbEntity
8
0
100
AcDbPolyline
90
8
70
1
43
0.0
10
-98.275000000000006
20
26.337499999999999
42
0.41421356237310542
10
-97.775000000000006
20
26.837499999999999
10
-97.77500000000002
20
39.837499999999999
42
0.41421356237311324
10
-98.275000000000006
20
40.337499999999991
10
-111.27500000000001
20
40.337500000000006
42
0.41421356237310802
10
-111.77500000000002
20
39.837499999999999
10
-111.77500000000002
20
26.837499999999999
42
0.41421356237309243
10
-111.27500000000001
20
26.337499999999991
0
LWPOLYLINE
5
156
100
AcDbEntity
8
0
100
AcDbPolyline
90
8
70
1
43
0.0
10
-174.47500000000002
20
26.337499999999999
42
0.41421356237307683
10
-173.97499999999997
20
26.837499999999999
10
-173.97500000000002
20
39.837499999999999
42
0.41421356237311063
10
-174.47500000000002
20
40.337500000000013
10
-187.47499999999999
20
40.337500000000006
42
0.41421356237313667
10
-187.97499999999999
20
39.837499999999999
10
-187.97499999999999
20
26.837499999999999
42
0.41421356237313145
10
-187.47499999999999
20
26.337499999999991
0
LWPOLYLINE
5
157
100
AcDbEntity
8
0
100
AcDbPolyline
90
8
70
1
43
0.0
10
-69.700000000000003
20
45.387500000000003
42
0.41421356237309503
10
-69.200000000000003
20
45.887500000000003
10
-69.200000000000003
20
58.88750000000001
42
0.41421356237309503
10
-69.700000000000003
20
59.387500000000003
10
-82.700000000000017
20
59.387500000000003
42
0.41421356237310025
10
-83.200000000000003
20
58.88750000000001
10
-83.200000000000003
20
45.887500000000003
42
0.41421356237310025
10
-82.700000000000017
20
45.38750000000001
0
LWPOLYLINE
5
158
100
AcDbEntity
8
0
100
AcDbPolyline
90
8
70
1
43
0.0
10
-150.66249999999999
20
64.4375
42
0.41421356237310542
10
-150.16249999999999
20
64.9375
10
-150.16249999999999
20
77.9375
42
0.41421356237309503
10
-150.66249999999999
20
78.437500000000014
10
-163.66250000000002
20
78.4375
42
0.4142135623730222
10
-164.16250000000002
20
77.9375
10
-164.16250000000002
20
64.9375
42
0.41421356237312623
10
-163.66250000000002
20
64.4375
0
LWPOLYLINE
5
159
100
AcDbEntity
8
0
100
AcDbPolyline
90
8
70
1
43
0.0
10
-45.887500000000003
20
83.487500000000011
42
0.41421356237311585
10
-45.38750000000001
20
83.987499999999997
10
-45.387500000000003
20
96.987500000000011
42
0.41421356237309503
10
-45.88750000000001
20
97.487500000000011
10
-58.88750000000001
20
97.487500000000011
42
0.41421356237309503
10
-59.387500000000024
20
96.987500000000011
10
-59.387500000000003
20
83.987499999999997
42
0.4142135623730846
10
-58.887500000000017
20
83.487499999999983
0
LWPOLYLINE
5
160
100
AcDbEntity
8
0
100
AcDbPolyline
90
8
70
1
43
0.0
10
-29.21875
20
102.53749999999999
42
0.41421356237309243
10
-28.718749999999996
20
103.03750000000001
10
-28.71875
20
116.13739867745308
42
0.414272916968843
10
-29.218749989692618
20
116.6375
10
-42.21875
20
116.6375
42
0.41421356237309503
10
-42.718750000000014
20
116.13749999999999
10
-42.718750000000007
20
103.03750000000001
42
0.41421356237308982
10
-42.218750000000007
20
102.53749999999999
0
LWPOLYLINE
5
161
100
AcDbEntity
8
0
100
AcDbPolyline
90
8
70
1
43
0.0
10
-41.125
20
26.337499999999999
42
0.41421356237309503
10
-40.625
20
26.837499999999999
10
-40.625
20
39.837499999999999
42
0.41421356237311846
10
-41.125000000000007
20
40.337499999999991
10
-54.125000000000007
20
40.337500000000006
42
0.41421356237310542
10
-54.625
20
39.837499999999999
10
-54.625
20
26.837499999999999
42
0.41421356237308982
10
-54.125000000000014
20
26.337499999999999
0
LWPOLYLINE
5
162
100
AcDbEntity
8
0
100
AcDbPolyline
90
8
70
1
43
0.0
10
-83.987499999999997
20
83.487500000000011
42
0.41421356237313667
10
-83.487500000000011
20
83.987499999999997
10
-83.487500000000011
20
96.987500000000011
42
0.41421356237313667
10
-83.987499999999997
20
97.487499999999997
10
-96.987500000000011
20
97.487500000000011
42
0.41421356237309503
10
-97.487500000000011
20
96.987500000000011
10
-97.487500000000011
20
83.987499999999997
42
0.41421356237309503
10
-96.987500000000011
20
83.487499999999983
0
CIRCLE
5
163
100
AcDbEntity
8
0
100
AcDbCircle
10
-219.07499999999999
20
55.777691734886375
30
0
40
1.9000000000000128
210
0
220
-0
230
1
0
LWPOLYLINE
5
164
100
AcDbEntity
8
0
100
AcDbPolyline
90
8
70
1
43
0.0
10
-198.28749999999999
20
83.487500000000011
42
0.41421356237307422
10
-197.78750000000002
20
83.987499999999997
10
-197.78750000000002
20
96.987500000000011
42
0.41421356237309503
10
-198.28749999999999
20
97.487499999999983
10
-211.28749999999999
20
97.487500000000011
42
0.41421356237313667
10
-211.78750000000002
20
96.987500000000011
10
-211.78750000000002
20
83.987499999999997
42
0.41421356237313667
10
-211.28749999999999
20
83.487499999999983
0
LWPOLYLINE
5
165
100
AcDbEntity
8
0
100
AcDbPolyline
90
32
70
1
43
0.0
10
-14.431250000000002
20
93.587500000000006
10
-12.733249999999998
20
93.587500000000006
10
-12.733250000000009
20
95.525747101538371
42
-0.41421356237309631
10
-12.23325
20
96.025747101538386
10
-6.2332500000000124
20
96.025747101538386
42
-0.41421356237310281
10
-5.7332499999999964
20
95.525747101538371
10
-5.7332500000000106
20
82.835674398316257
42
-0.41421356237311519
10
-6.2332499999999991
20
82.335674398316257
10
-12.233249999999991
20
82.335674398316257
42
-0.41421356237312101
10
-12.733249999999995
20
82.835674398316257
10
-12.733249999999998
20
87.487500000000011
10
-14.431250000000002
20
87.487500000000011
10
-14.431250000000013
20
83.987499999999997
42
-0.41421356237311452
10
-14.93125
20
83.487500000000011
10
-27.931249999999999
20
83.487499999999983
42
-0.41421356237309243
10
-28.431250000000002
20
83.987499999999997
10
-28.431250000000006
20
87.487500000000011
10
-30.12925000000001
20
87.487500000000011
10
-30.129250000000013
20
82.835674398316257
42
-0.41421356237311324
10
-30.629249999999999
20
82.335674398316257
10
-36.629249999999999
20
82.335674398316243
42
-0.41421356237311063
10
-37.129249999999999
20
82.835674398316257
10
-37.129250000000006
20
95.525747101538371
42
-0.41421356237309503
10
-36.629249999999999
20
96.025747101538386
10
-30.629249999999999
20
96.025747101538386
42
-0.41421356237310542
10
-30.129249999999999
20
95.525747101538371
10
-30.129249999999992
20
93.587500000000006
10
-28.431250000000006
20
93.587500000000006
10
-28.431250000000002
20
96.987500000000011
42
-0.41421356237309243
10
-27.931249999999999
20
97.487500000000011
10
-14.931249999999991
20
97.487500000000026
42
-0.41421356237309892
10
-14.431250000000002
20
96.987500000000011
0
LWPOLYLINE
5
166
100
AcDbEntity
8
0
100
AcDbPolyline
90
8
70
1
43
0.0
10
-267.34375
20
102.53749999999999
42
0.41421356237310542
10
-266.84375
20
103.03750000000001
10
-266.84375
20
116.03749999999999
42
0.41421356237309503
10
-267.34375
20
116.53749999999997
10
-280.34375
20
116.53750000000001
42
0.41421356237309503
10
-280.84375
20
116.03749999999999
10
-280.84375
20
103.03750000000001
42
0.41421356237313667
10
-280.34375
20
102.53749999999999
0
LWPOLYLINE
5
167
100
AcDbEntity
8
0
100
AcDbPolyline
90
8
70
1
43
0.0
10
-184.00000000000003
20
4.3250000000000002
42
0.41421356237307749
10
-183.49999999999997
20
4.8249999999999993
10
-183.5
20
17.825000000000003
42
0.41421356237313406
10
-184.00000000000003
20
18.325000000000014
10
-197.00000000000003
20
18.324999999999999
42
0.41421356237304302
10
-197.50000000000003
20
17.825000000000006
10
-197.5
20
4.8250000000000002
42
0.41421356237309631
10
-197.00000000000003
20
4.3250000000000277
0
LWPOLYLINE
5
168
100
AcDbEntity
8
0
100
AcDbPolyline
90
8
70
1
43
0.0
10
-212.57499999999999
20
26.337499999999999
42
0.41421356237304563
10
-212.07499999999999
20
26.837499999999999
10
-212.07499999999999
20
39.837499999999999
42
0.41421356237310025
10
-212.57499999999999
20
40.337500000000013
10
-225.57500000000002
20
40.337500000000006
42
0.41421356237313667
10
-226.07500000000002
20
39.837499999999999
10
-226.07500000000002
20
26.837499999999999
42
0.41421356237313145
10
-225.57500000000002
20
26.337499999999991
0
LWPOLYLINE
5
169
100
AcDbEntity
8
0
100
AcDbPolyline
90
8
70
1
43
0.0
10
-231.625
20
4.3250000000000002
42
0.41923461676122747
10
-231.12507320736373
20
4.8335558169916837
10
-231.14956994928806
20
17.670189577611744
42
0.50972542704355006
10
-231.625
20
18.324999999999996
10
-244.62500000000003
20
18.324999999999999
42
0.41421356237307422
10
-245.12500000000003
20
17.825000000000006
10
-245.12500000000003
20
4.8250000000000002
42
0.41421356237313273
10
-244.62500000000003
20
4.3249999999999922
0
LWPOLYLINE
5
170
100
AcDbEntity
8
0
100
AcDbPolyline
90
8
70
1
43
0.0
10
-107.80000000000001
20
45.387500000000003
42
0.41421356237308982
10
-107.30000000000001
20
45.887500000000003
10
-107.30000000000001
20
58.88750000000001
42
0.41421356237309503
10
-107.80000000000001
20
59.387500000000017
10
-120.8
20
59.387500000000003
42
0.41421356237310025
10
-121.29999999999998
20
58.88750000000001
10
-121.30000000000001
20
45.887500000000003
42
0.41421356237307422
10
-120.8
20
45.387499999999996
0
CIRCLE
5
171
100
AcDbEntity
8
0
100
AcDbCircle
10
-142.875
20
8.5249824934784346
30
0
40
1.899999999999995
210
0
220
-0
230
1
0
LWPOLYLINE
5
172
100
AcDbEntity
8
0
100
AcDbPolyline
90
8
70
1
43
0.0
10
-195.90625000000003
20
102.53749999999999
42
0.41421356237310542
10
-195.40625000000006
20
103.03750000000001
10
-195.40625000000003
20
116.03749999999999
42
0.4142135623730846
10
-195.90625000000003
20
116.53750000000001
10
-208.90625
20
116.53750000000001
42
0.4142135623730846
10
-209.40625
20
116.03749999999999
10
-209.40625
20
103.03750000000001
42
0.41421356237310542
10
-208.90625
20
102.53749999999999
0
LWPOLYLINE
5
173
100
AcDbEntity
8
0
100
AcDbPolyline
90
8
70
1
43
0.0
10
-60.174999999999997
20
4.3250000000000002
42
0.41421356237309664
10
-59.675000000000004
20
4.8249999999999993
10
-59.675000000000004
20
17.825000000000003
42
0.41421356237309764
10
-60.174999999999997
20
18.324999999999996
10
-73.174999999999997
20
18.324999999999999
42
0.41421356237309243
10
-73.674999999999997
20
17.825000000000006
10
-73.674999999999997
20
4.8250000000000002
42
0.41421356237309959
10
-73.174999999999983
20
4.3250000000000011
0
LWPOLYLINE
5
174
100
AcDbEntity
8
0
100
AcDbPolyline
90
8
70
1
43
0.0
10
-126.85000000000001
20
4.3250000000000002
42
0.41421356237307422
10
-126.34999999999999
20
4.8249999999999993
10
-126.34999999999999
20
17.825000000000003
42
0.41421356237307549
10
-126.85000000000001
20
18.325000000000014
10
-139.84999999999999
20
18.324999999999999
42
0.41421356237310153
10
-140.34999999999999
20
17.825000000000006
10
-140.34999999999999
20
4.8250000000000002
42
0.41421356237309437
10
-139.84999999999999
20
4.3249999999999922
0
LWPOLYLINE
5
175
100
AcDbEntity
8
0
100
AcDbPolyline
90
8
70
1
43
0.0
10
-203.05000000000004
20
45.387500000000003
42
0.41421356237307422
10
-202.54999999999998
20
45.887500000000003
10
-202.55000000000001
20
58.88750000000001
42
0.41421356237313145
10
-203.05000000000004
20
59.387500000000017
10
-216.05000000000004
20
59.387500000000003
42
0.4142135623730222
10
-216.55000000000004
20
58.88750000000001
10
-216.55000000000001
20
45.887500000000003
42
0.41421356237310025
10
-216.05000000000004
20
45.387500000000031
0
LWPOLYLINE
5
176
100
AcDbEntity
8
0
100
AcDbPolyline
90
8
70
1
43
0.0
10
-79.224999999999994
20
4.3250000000000002
42
0.41421356237309664
10
-78.724999999999994
20
4.8249999999999993
10
-78.724999999999994
20
17.825000000000003
42
0.41421356237309764
10
-79.224999999999994
20
18.324999999999996
10
-92.224999999999994
20
18.324999999999999
42
0.41421356237310153
10
-92.725000000000009
20
17.825000000000006
10
-92.724999999999994
20
4.8250000000000002
42
0.41421356237311519
10
-92.224999999999994
20
4.3250000000000099
0
CIRCLE
5
177
100
AcDbEntity
8
0
100
AcDbCircle
10
-19.648811844443816
20
8.5249824934784346
30
0
40
1.8999999999999995
210
0
220
-0
230
1
0
CIRCLE
5
178
100
AcDbEntity
8
0
100
AcDbCircle
10
-123.825
20
55.597691734886382
30
0
40
1.899999999999995
210
0
220
-0
230
1
0
LWPOLYLINE
5
179
100
AcDbEntity
8
0
100
AcDbPolyline
90
8
70
1
43
0.0
10
-3.0249999999999999
20
4.3250000000000002
42
0.41421356237309437
10
-2.5249999999999999
20
4.8249999999999993
10
-2.5249999999999999
20
17.825000000000003
42
0.4142135623730856
10
-3.0249999999999844
20
18.325000000000003
10
-16.024999999999999
20
18.324999999999999
42
0.41421356237309503
10
-16.524999999999999
20
17.825000000000006
10
-16.524999999999999
20
4.8250000000000002
42
0.41421356237310086
10
-16.024999999999991
20
4.3250000000000011
0
LWPOLYLINE
5
180
100
AcDbEntity
8
0
100
AcDbPolyline
90
8
70
1
43
0.0
10
-126.85000000000001
20
45.387500000000003
42
0.41421356237310025
10
-126.35000000000002
20
45.887500000000003
10
-126.34999999999999
20
58.88750000000001
42
0.41421356237307422
10
-126.85000000000001
20
59.387500000000017
10
-139.84999999999999
20
59.387500000000003
42
0.41421356237308982
10
-140.34999999999999
20
58.88750000000001
10
-140.34999999999999
20
45.887500000000003
42
0.41421356237309503
10
-139.84999999999999
20
45.387499999999996
0
LWPOLYLINE
5
181
100
AcDbEntity
8
0
100
AcDbPolyline
90
8
70
1
43
0.0
10
-41.125
20
4.3250000000000002
42
0.41421356237309404
10
-40.625
20
4.8249999999999993
10
-40.625
20
17.825000000000003
42
0.41421356237310025
10
-41.125000000000007
20
18.324999999999996
10
-54.125000000000007
20
18.324999999999999
42
0.41421356237309243
10
-54.625
20
17.825000000000006
10
-54.625
20
4.8250000000000002
42
0.41421356237308915
10
-54.125000000000014
20
4.3250000000000011
0
LWPOLYLINE
5
182
100
AcDbEntity
8
0
100
AcDbPolyline
90
8
70
1
43
0.0
10
-36.362499999999997
20
64.4375
42
0.41421356237309764
10
-35.862499999999997
20
64.9375
10
-35.862499999999997
20
77.9375
42
0.41421356237308982
10
-36.362500000000004
20
78.4375
10
-49.362500000000004
20
78.4375
42
0.41421356237309503
10
-49.862499999999997
20
77.9375
10
-49.862499999999997
20
64.9375
42
0.41421356237308982
10
-49.362500000000011
20
64.4375
0
ENDSEC
0
SECTION
2
OBJECTS
0
DICTIONARY
5
C
100
AcDbDictionary
3
ACAD_GROUP
350
D
3
ACAD_MLINESTYLE
350
17
0
DICTIONARY
5
D
100
AcDbDictionary
0
DICTIONARY
5
1A
330
C
100
AcDbDictionary
0
DICTIONARY
5
17
100
AcDbDictionary
0
ENDSEC
0
EOF
