0
SECTION
2
HEADER
9
$INSUNITS
70
4
9
$ACADVER
1
AC1014
9
$HANDSEED
5
FFFF
0
ENDSEC
0
SECTION
2
TABLES
0
TABLE
2
VPORT
5
8
100
AcDbSymbolTable
0
ENDTAB
0
TABLE
2
LTYPE
5
5
100
AcDbSymbolTable
0
LTYPE
5
14
100
AcDbSymbolTableRecord
100
AcDbLinetypeTableRecord
2
BYBLOCK
70
0
0
LTYPE
5
15
100
AcDbSymbolTableRecord
100
AcDbLinetypeTableRecord
2
BYLAYER
70
0
0
LTYPE
5
16
100
AcDbSymbolTableRecord
100
AcDbLinetypeTableRecord
2
DASHED
70
0
3
Dashed __ __ __ __ __ __ __ __ __ __ __ __ __ _
72
65
73
2
40
0.75
49
0.5
74
0
49
-0.25
74
0
0
ENDTAB
0
TABLE
2
LAYER
5
2
100
AcDbSymbolTable
70
2
0
LAYER
5
50
100
AcDbSymbolTableRecord
100
AcDbLayerTableRecord
2
0
70
0
62
7
6
CONTINUOUS
0
ENDTAB
0
TABLE
2
STYLE
5
3
100
AcDbSymbolTable
70
1
0
STYLE
5
11
100
AcDbSymbolTableRecord
100
AcDbTextStyleTableRecord
2
STANDARD
70
0
0
ENDTAB
0
TABLE
2
VIEW
5
6
100
AcDbSymbolTable
70
0
0
ENDTAB
0
TABLE
2
UCS
5
7
100
AcDbSymbolTable
70
0
0
ENDTAB
0
TABLE
2
APPID
5
9
100
AcDbSymbolTable
70
2
0
APPID
5
12
100
AcDbSymbolTableRecord
100
AcDbRegAppTableRecord
2
ACAD
70
0
0
ENDTAB
0
TABLE
2
DIMSTYLE
5
A
100
AcDbSymbolTable
70
1
0
ENDTAB
0
TABLE
2
BLOCK_RECORD
5
1
100
AcDbSymbolTable
70
1
0
BLOCK_RECORD
5
1F
100
AcDbSymbolTableRecord
100
AcDbBlockTableRecord
2
*MODEL_SPACE
0
BLOCK_RECORD
5
1B
100
AcDbSymbolTableRecord
100
AcDbBlockTableRecord
2
*PAPER_SPACE
0
ENDTAB
0
ENDSEC
0
SECTION
2
BLOCKS
0
BLOCK
5
20
100
AcDbEntity
100
AcDbBlockBegin
2
*MODEL_SPACE
0
ENDBLK
5
21
100
AcDbEntity
100
AcDbBlockEnd
0
BLOCK
5
1C
100
AcDbEntity
100
AcDbBlockBegin
2
*PAPER_SPACE
0
ENDBLK
5
1D
100
AcDbEntity
100
AcDbBlockEnd
0
ENDSEC
0
SECTION
2
ENTITIES
0
LWPOLYLINE
5
100
100
AcDbEntity
8
0
100
AcDbPolyline
90
8
70
1
43
0.0
10
-312.6875
20
83.487500000000011
42
0.4142135623730846
10
-312.1875
20
83.987499999999997
10
-312.1875
20
96.987500000000011
42
0.41421356237313667
10
-312.6875
20
97.487500000000011
10
-325.68749999999994
20
97.487500000000011
42
0.41421356237312623
10
-326.18749999999989
20
96.987500000000011
10
-326.18750000000006
20
83.987499999999997
42
0.41421356237310542
10
-325.68749999999994
20
83.487499999999883
0
LWPOLYLINE
5
101
100
AcDbEntity
8
0
100
AcDbPolyline
90
8
70
1
43
0.0
10
-293.63750000000005
20
4.3250000000000002
42
0.41421356237307749
10
-293.13750000000005
20
4.8249999999999993
10
-293.13750000000005
20
17.825000000000003
42
0.41421356237313406
10
-293.63750000000005
20
18.325000000000014
10
-306.63750000000005
20
18.324999999999999
42
0.41421356237307422
10
-307.13750000000005
20
17.825000000000006
10
-307.13750000000005
20
4.8250000000000002
42
0.41421356237313273
10
-306.63750000000005
20
4.3249999999999922
0
LWPOLYLINE
5
102
100
AcDbEntity
8
0
100
AcDbPolyline
90
8
70
1
43
0.0
10
-312.6875
20
45.387500000000003
42
0.41421356237307422
10
-312.18749999999994
20
45.887500000000003
10
-312.1875
20
58.88750000000001
42
0.41421356237313145
10
-312.6875
20
59.387500000000017
10
-325.68749999999994
20
59.387500000000003
42
0.41421356237311585
10
-326.18749999999989
20
58.88750000000001
10
-326.18750000000006
20
45.887500000000003
42
0.41421356237310025
10
-325.68749999999994
20
45.387499999999889
0
LWPOLYLINE
5
103
100
AcDbEntity
8
0
100
AcDbPolyline
90
8
70
1
43
0.0
10
-312.6875
20
102.53749999999999
42
0.41421356237313667
10
-312.1875
20
103.03750000000001
10
-312.1875
20
116.03749999999999
42
0.41421356237309503
10
-312.6875
20
116.53750000000001
10
-325.68749999999994
20
116.53750000000001
42
0.41421356237310542
10
-326.18749999999989
20
116.03749999999999
10
-326.18750000000006
20
103.03750000000001
42
0.41421356237310542
10
-325.68749999999994
20
102.53749999999989
0
LWPOLYLINE
5
104
100
AcDbEntity
8
0
100
AcDbPolyline
90
8
70
1
43
0.0
10
-293.63750000000005
20
45.387500000000003
42
0.41421356237307422
10
-293.13750000000005
20
45.887500000000003
10
-293.13750000000005
20
58.88750000000001
42
0.41421356237313145
10
-293.63750000000005
20
59.387500000000017
10
-306.63750000000005
20
59.387500000000003
42
0.41421356237307422
10
-307.13750000000005
20
58.88750000000001
10
-307.13750000000005
20
45.887500000000003
42
0.41421356237313145
10
-306.63750000000005
20
45.387499999999996
0
LWPOLYLINE
5
105
100
AcDbEntity
8
0
100
AcDbPolyline
90
8
70
1
43
0.0
10
-312.6875
20
26.337499999999999
42
0.41421356237307683
10
-312.18749999999994
20
26.837499999999999
10
-312.1875
20
39.837499999999999
42
0.41421356237311063
10
-312.6875
20
40.337500000000013
10
-325.68749999999994
20
40.337500000000006
42
0.41421356237311063
10
-326.18749999999989
20
39.837499999999999
10
-326.18750000000006
20
26.837499999999999
42
0.41421356237310281
10
-325.68749999999994
20
26.337499999999885
0
LWPOLYLINE
5
106
100
AcDbEntity
8
0
100
AcDbPolyline
90
8
70
1
43
0.0
10
-293.63750000000005
20
26.337499999999999
42
0.41421356237307683
10
-293.13750000000005
20
26.837499999999999
10
-293.13750000000005
20
39.837499999999999
42
0.41421356237311063
10
-293.63750000000005
20
40.337500000000013
10
-306.63750000000005
20
40.337500000000006
42
0.41421356237313667
10
-307.13750000000005
20
39.837499999999999
10
-307.13750000000005
20
26.837499999999999
42
0.41421356237313145
10
-306.63750000000005
20
26.337499999999991
0
LWPOLYLINE
5
107
100
AcDbEntity
8
0
100
AcDbPolyline
90
8
70
1
43
0.0
10
-331.73749999999995
20
102.53749999999999
42
0.41421356237312623
10
-331.23750000000001
20
103.03750000000001
10
-331.23750000000001
20
116.03749999999999
42
0.4142135623730222
10
-331.73749999999995
20
116.53749999999997
10
-344.73749999999995
20
116.53750000000001
42
0.41421356237310542
10
-345.23749999999995
20
116.03749999999999
10
-345.23750000000007
20
103.03750000000001
42
0.41421356237310542
10
-344.73749999999995
20
102.53749999999989
0
LWPOLYLINE
5
108
100
AcDbEntity
8
0
100
AcDbPolyline
90
8
70
1
43
0.0
10
-331.73749999999995
20
45.387500000000003
42
0.41421356237311585
10
-331.23750000000001
20
45.887500000000003
10
-331.23750000000001
20
58.88750000000001
42
0.4142135623730222
10
-331.73749999999995
20
59.387499999999982
10
-344.73749999999995
20
59.387500000000003
42
0.41421356237311585
10
-345.23749999999995
20
58.88750000000001
10
-345.23750000000007
20
45.887500000000003
42
0.41421356237310025
10
-344.73749999999995
20
45.387499999999889
0
LWPOLYLINE
5
109
100
AcDbEntity
8
0
100
AcDbPolyline
90
8
70
1
43
0.0
10
-331.73749999999995
20
4.3250000000000002
42
0.41421356237310997
10
-331.23750000000001
20
4.8249999999999993
10
-331.23750000000001
20
17.825000000000003
42
0.41421356237301959
10
-331.73749999999995
20
18.324999999999978
10
-344.73749999999995
20
18.324999999999999
42
0.41421356237310802
10
-345.23749999999995
20
17.825000000000006
10
-345.23750000000007
20
4.8250000000000002
42
0.41421356237310281
10
-344.73749999999995
20
4.3249999999998856
0
LWPOLYLINE
5
110
100
AcDbEntity
8
0
100
AcDbPolyline
90
8
70
1
43
0.0
10
-293.63750000000005
20
102.53749999999999
42
0.41421356237313667
10
-293.13750000000005
20
103.03750000000001
10
-293.13750000000005
20
116.03749999999999
42
0.41421356237309503
10
-293.63750000000005
20
116.53750000000001
10
-306.63750000000005
20
116.53750000000001
42
0.41421356237309503
10
-307.13750000000005
20
116.03749999999999
10
-307.13750000000005
20
103.03750000000001
42
0.41421356237313667
10
-306.63750000000005
20
102.53749999999999
0
CIRCLE
5
111
100
AcDbEntity
8
0
100
AcDbCircle
10
-328.71250000000003
20
113.06971707076968
30
0
40
1.899999999999977
210
0
220
-0
230
1
0
LWPOLYLINE
5
112
100
AcDbEntity
8
0
100
AcDbPolyline
90
8
70
1
43
0.0
10
-331.73749999999995
20
26.337499999999999
42
0.41421356237311063
10
-331.23750000000001
20
26.837499999999999
10
-331.23750000000001
20
39.837499999999999
42
0.41421356237301177
10
-331.73749999999995
20
40.337499999999977
10
-344.73749999999995
20
40.337500000000006
42
0.41421356237311063
10
-345.23749999999995
20
39.837499999999999
10
-345.23750000000007
20
26.837499999999999
42
0.41421356237310281
10
-344.73749999999995
20
26.337499999999885
0
CIRCLE
5
113
100
AcDbEntity
8
0
100
AcDbCircle
10
-328.71249999999998
20
8.5249824934784346
30
0
40
1.899999999999977
210
0
220
-0
230
1
0
LWPOLYLINE
5
114
100
AcDbEntity
8
0
100
AcDbPolyline
90
8
70
1
43
0.0
10
-312.6875
20
4.3250000000000002
42
0.41421356237307749
10
-312.18749999999994
20
4.8249999999999993
10
-312.1875
20
17.825000000000003
42
0.41421356237313406
10
-312.6875
20
18.325000000000014
10
-325.68749999999994
20
18.324999999999999
42
0.41421356237310802
10
-326.18749999999989
20
17.825000000000006
10
-326.18750000000006
20
4.8250000000000002
42
0.41421356237310281
10
-325.68749999999994
20
4.3249999999998856
0
LWPOLYLINE
5
115
100
AcDbEntity
8
0
100
AcDbPolyline
90
12
70
1
43
0.0
10
-288.18125000000003
20
104.43750000000001
42
0.99999999999999989
10
-288.18125000000015
20
100.63749999999999
10
-288.18125162740057
20
99.237499999966857
42
0.41421112147466571
10
-290.38123372599551
20
97.037500432897247
10
-290.38124960649316
20
16.324820068515123
42
0.41421356761198619
10
-288.18125000000009
20
14.124819635657575
10
-288.18125000000003
20
12.724819635657578
42
0.99999999999999989
10
-288.18125000000003
20
8.9248196356575527
10
-288.18125000000003
20
0.90000000000002245
10
-348.5625
20
0.90000000000001634
10
-348.5625
20
119.96249999999998
10
-288.18125000000003
20
119.96250000000001
0
LWPOLYLINE
5
116
100
AcDbEntity
8
0
100
AcDbPolyline
90
4
70
1
43
0.0
10
-346.00000515580166
20
71.437499999999844
10
-293.00000436604012
20
71.437500000000128
10
-293.00000436604
20
61.387500000000017
10
-346.00000515580155
20
61.387500000000017
0
LWPOLYLINE
5
117
100
AcDbEntity
8
0
100
AcDbPolyline
90
4
70
1
43
0.0
10
-346.00000515580166
20
73.437499999999844
10
-346.00000515580177
20
81.487499999999656
10
-293.00000436604023
20
81.487500000000225
10
-293.00000436604012
20
73.437500000000128
0
ENDSEC
0
SECTION
2
OBJECTS
0
DICTIONARY
5
C
100
AcDbDictionary
3
ACAD_GROUP
350
D
3
ACAD_MLINESTYLE
350
17
0
DICTIONARY
5
D
100
AcDbDictionary
0
DICTIONARY
5
1A
330
C
100
AcDbDictionary
0
DICTIONARY
5
17
100
AcDbDictionary
0
ENDSEC
0
EOF
